<svg width="20" height="20" viewBox="0 0 20 20" fill="none" xmlns="http://www.w3.org/2000/svg">
<path d="M20 2.5V17.5C20 18.163 19.7366 18.7989 19.2678 19.2678C18.7989 19.7366 18.163 20 17.5 20H11.25V12.5H13.5C13.6 11.6125 13.7 10.7625 13.8 9.8625H11.25V9.75V8.4C11.25 7.7875 11.475 7.575 12.1375 7.575H13.75V5C12.7125 5 11.675 5 10.65 5C10.0814 5.02175 9.53408 5.22176 9.08543 5.5717C8.63678 5.92165 8.30953 6.40383 8.15 6.95C8.02887 7.35611 7.96163 7.77637 7.95 8.2C7.95 8.725 7.95 9.25 7.95 9.8125H6.25V12.5H7.8375V20H2.5C1.83696 20 1.20107 19.7366 0.732233 19.2678C0.263392 18.7989 0 18.163 0 17.5V2.5C0 1.83696 0.263392 1.20107 0.732233 0.732233C1.20107 0.263392 1.83696 0 2.5 0L17.5 0C18.163 0 18.7989 0.263392 19.2678 0.732233C19.7366 1.20107 20 1.83696 20 2.5Z" fill="white"/>
</svg>
